<svg height="512" viewBox="0 0 64 64" width="512" xmlns="http://www.w3.org/2000/svg"><g id="Location"><path d="m22.29 43h28.71l10 18h-58l10-18h9.71" fill="#006df0"/><path d="m12.575 52-2.775 5h7.85l2.275-5z" fill="#ffcd00"/><path d="m22.2 47h-6.85l-2.775 5h7.35z" fill="#d80027"/><path d="m36.675 52-1.675-5h-5.87-.13l-1.675 5z" fill="#d80027"/><path d="m27 52h.325l1.675-5h-.11-6.69l-2.275 5z" fill="#ee8700"/><path d="m44.075 52-2.275-5h-6.8l1.675 5z" fill="#ff9811"/><path d="m51.425 52-2.775-5h-6.85l2.275 5z" fill="#ebbf00"/><path d="m51.425 52h-7.35l2.275 5h7.85z" fill="#d80027"/><path d="m27 52h-7.075l-2.275 5h8l1.675-5z" fill="#d80027"/><path d="m36.675 52 1.675 5h8l-2.275-5z" fill="#ffcd00"/><path d="m27.325 52-1.675 5h12.7l-1.675-5z" fill="#ee8700"/><path d="m32 3a19.994 19.994 0 0 0 -20 20c0 8.05 10.6 20.28 16.37 26.33 1.07 1.13 1.98 2.05 2.62 2.68s1.01.99 1.01.99 20-18.95 20-30a19.994 19.994 0 0 0 -20-20z" fill="#ffcd00"/><path d="m32 3v50s20-18.95 20-30a19.994 19.994 0 0 0 -20-20z" fill="#ebbf00"/><circle cx="32" cy="23" fill="#f1f2f2" r="8"/><path d="m32 15v16a8 8 0 0 0 0-16z" fill="#e6e7e8"/></g></svg>